<?xml version="1.0" encoding="UTF-8" standalone="no"?>
<!DOCTYPE svg PUBLIC "-//W3C//DTD SVG 1.1//EN" "http://www.w3.org/Graphics/SVG/1.1/DTD/svg11.dtd">
<svg xmlns="http://www.w3.org/2000/svg" version="1.1" viewBox="0.00 0.00 100.00 100.00">
<path fill="#ffffff" d="
  M 95.9584 73.9002
  A 8.18 8.18 0.0 0 1 87.7641 82.0660
  L 12.1242 81.9339
  A 8.18 8.18 0.0 0 1 3.9585 73.7397
  L 4.0416 26.0998
  A 8.18 8.18 0.0 0 1 12.2359 17.9340
  L 87.8758 18.0661
  A 8.18 8.18 0.0 0 1 96.0415 26.2603
  L 95.9584 73.9002
  Z
  M 92.00 25.94
  A 3.94 3.94 0.0 0 0 88.06 22.00
  L 11.94 22.00
  A 3.94 3.94 0.0 0 0 8.00 25.94
  L 8.00 74.06
  A 3.94 3.94 0.0 0 0 11.94 78.00
  L 88.06 78.00
  A 3.94 3.94 0.0 0 0 92.00 74.06
  L 92.00 25.94
  Z"
/>
<path fill="#ffffff" d="
  M 41.30 57.71
  C 46.57 59.59 51.56 61.74 51.89 68.00
  A 1.90 1.90 0.0 0 1 49.99 70.00
  L 17.99 70.00
  A 1.89 1.89 0.0 0 1 16.10 68.15
  C 15.94 61.70 22.36 59.33 27.21 57.41
  A 2.22 2.20 63.8 0 0 28.29 54.21
  Q 26.51 51.23 24.48 48.01
  Q 23.52 46.48 24.76 43.71
  Q 24.96 43.26 24.82 42.79
  Q 22.97 36.75 26.38 32.92
  C 28.88 30.12 34.18 29.04 37.67 31.34
  C 39.44 32.50 41.46 32.70 42.61 34.36
  C 44.44 37.02 43.99 40.94 43.12 43.85
  A 1.16 1.16 0.0 0 0 43.23 44.78
  Q 44.27 46.57 43.65 47.64
  Q 41.97 50.59 40.18 53.47
  C 39.08 55.27 39.17 56.95 41.30 57.71
  Z
  M 32.35 53.55
  C 32.59 57.56 32.19 59.39 28.41 61.11
  Q 25.06 62.63 21.40 64.61
  A 0.74 0.74 0.0 0 0 21.75 66.00
  L 46.27 66.00
  A 0.68 0.68 0.0 0 0 46.62 64.74
  C 42.19 62.04 34.33 60.68 35.60 54.05
  Q 35.86 52.70 37.51 50.25
  Q 38.73 48.44 39.65 46.39
  Q 39.85 45.94 39.63 45.50
  C 38.69 43.68 40.06 39.56 39.81 37.36
  Q 39.74 36.78 39.23 36.52
  Q 37.58 35.69 35.93 34.86
  Q 33.70 33.73 31.92 34.13
  C 28.04 35.02 28.15 38.00 28.54 41.62
  Q 28.78 43.88 28.30 46.09
  Q 28.19 46.60 28.48 47.05
  L 32.07 52.71
  Q 32.32 53.09 32.35 53.55
  Z"
/>
<rect fill="#ffffff" x="55.88" y="38.01" width="28.06" height="3.96" rx="1.94"/>
<rect fill="#ffffff" x="55.89" y="48.05" width="28.04" height="3.92" rx="1.91"/>
<rect fill="#ffffff" x="55.88" y="58.03" width="28.06" height="3.96" rx="1.94"/>
</svg>
